<svg xmlns="http://www.w3.org/2000/svg" fill="none" viewBox="0 0 40 40"><path fill="url(#testing_svg__a)" fill-rule="evenodd" d="M32.09 2.4H7A1.6 1.6 0 0 0 5.4 4v32A1.6 1.6 0 0 0 7 37.6h25.09a1.6 1.6 0 0 0 1.6-1.6V4a1.6 1.6 0 0 0-1.6-1.6M7 1a3 3 0 0 0-3 3v32a3 3 0 0 0 3 3h25.09a3 3 0 0 0 3-3V4a3 3 0 0 0-3-3zm12.71 8.637a.7.7 0 0 1 .7-.7h8.637a.7.7 0 1 1 0 1.4H20.41a.7.7 0 0 1-.7-.7m.7 9.663a.7.7 0 1 0 0 1.4h8.637a.7.7 0 1 0 0-1.4zm-.7 11.063a.7.7 0 0 1 .7-.7h8.637a.7.7 0 1 1 0 1.4H20.41a.7.7 0 0 1-.7-.7M16.587 7.54a.7.7 0 1 0-.99-.99l-3.823 3.823-1.232-1.232a.7.7 0 1 0-.99.99l1.727 1.727a.7.7 0 0 0 .99 0zm0 9.375a.7.7 0 0 1 0 .99l-4.318 4.318a.7.7 0 0 1-.99 0l-1.727-1.727a.7.7 0 1 1 .99-.99l1.232 1.232 3.823-3.823a.7.7 0 0 1 .99 0m-5.84 13.45a1.89 1.89 0 1 1 3.782 0 1.89 1.89 0 0 1-3.782 0m1.89-3.292a3.29 3.29 0 1 0 0 6.582 3.29 3.29 0 0 0 0-6.582" clip-rule="evenodd"/><defs><linearGradient id="testing_svg__a" x1="19.546" x2="19.546" y1="1" y2="39" gradientUnits="userSpaceOnUse"><stop stop-color="#ACB3D2"/><stop offset="1" stop-color="#ACB2D2" stop-opacity=".4"/></linearGradient></defs></svg>