<svg xmlns="http://www.w3.org/2000/svg" fill="none" viewBox="0 0 40 40"><path fill="url(#scraping_svg__a)" fill-rule="evenodd" d="M4 1.3A2.7 2.7 0 0 0 1.3 4v32A2.7 2.7 0 0 0 4 38.7h20.881a.7.7 0 1 0 0-1.4H4.001A1.3 1.3 0 0 1 2.7 36V4A1.3 1.3 0 0 1 4 2.7h26A1.3 1.3 0 0 1 31.3 4v8.703a.7.7 0 1 0 1.4 0V4A2.7 2.7 0 0 0 30 1.3zm4 7a.7.7 0 1 0 0 1.4h17a.7.7 0 1 0 0-1.4zM7.3 17a.7.7 0 0 1 .7-.7h9a.7.7 0 1 1 0 1.4H8a.7.7 0 0 1-.7-.7m0 8a.7.7 0 0 1 .7-.7h6a.7.7 0 1 1 0 1.4H8a.7.7 0 0 1-.7-.7m13.283-.491a6.084 6.084 0 1 1 12.168 0 6.084 6.084 0 0 1-12.168 0m6.084-7.485a7.484 7.484 0 1 0 4.774 13.249l6.605 6.604a.7.7 0 0 0 .99-.99l-6.605-6.604a7.484 7.484 0 0 0-5.764-12.258" clip-rule="evenodd"/><defs><linearGradient id="scraping_svg__a" x1="20.27" x2="20.27" y1="1.3" y2="38.7" gradientUnits="userSpaceOnUse"><stop stop-color="#ACB3D2"/><stop offset="1" stop-color="#ACB2D2" stop-opacity=".4"/></linearGradient></defs></svg>