<svg xmlns="http://www.w3.org/2000/svg" fill="none" viewBox="0 0 40 40"><path fill="url(#automation_svg__a)" fill-rule="evenodd" d="M19 2.4h-4A1.6 1.6 0 0 0 13.4 4v4A1.6 1.6 0 0 0 15 9.6h4A1.6 1.6 0 0 0 20.6 8V4A1.6 1.6 0 0 0 19 2.4M15 1a3 3 0 0 0-3 3v1.3H8A2.7 2.7 0 0 0 5.3 8v4.095a.7.7 0 1 0 1.4 0V8A1.3 1.3 0 0 1 8 6.7h4V8a3 3 0 0 0 3 3h4a3 3 0 0 0 3-3V6.7h10A1.3 1.3 0 0 1 33.3 8v12.31l-2.805-2.805a.7.7 0 0 0-.99.99l3.859 3.859a.9.9 0 0 0 1.272 0l3.859-3.859a.7.7 0 0 0-.99-.99L34.7 20.31V8A2.7 2.7 0 0 0 32 5.3H22V4a3 3 0 0 0-3-3zM6.7 19.69l2.805 2.805a.7.7 0 0 0 .99-.99l-3.859-3.859a.9.9 0 0 0-1.272 0l-3.859 3.859a.7.7 0 0 0 .99.99L5.3 19.69V32A2.7 2.7 0 0 0 8 34.7h11V36a3 3 0 0 0 3 3h4a3 3 0 0 0 3-3v-4a3 3 0 0 0-3-3h-4a3 3 0 0 0-3 3v1.3H8A1.3 1.3 0 0 1 6.7 32zM32 33.3a1.3 1.3 0 0 0 1.3-1.3v-4.095a.7.7 0 1 1 1.4 0V32a2.7 2.7 0 0 1-2.7 2.7h-3v-1.4zm-10-2.9h4a1.6 1.6 0 0 1 1.6 1.6v4a1.6 1.6 0 0 1-1.6 1.6h-4a1.6 1.6 0 0 1-1.6-1.6v-4a1.6 1.6 0 0 1 1.6-1.6" clip-rule="evenodd"/><defs><linearGradient id="automation_svg__a" x1="20" x2="20" y1="1" y2="39" gradientUnits="userSpaceOnUse"><stop stop-color="#ACB3D2"/><stop offset="1" stop-color="#ACB2D2" stop-opacity=".4"/></linearGradient></defs></svg>